# xmcd
#
# Track frame offsets: 
#        150
#        18377
#        34477
#        91595
#        111647
#        130690
#        150047
#        173797
#        195665
#        217835
#        238510
#        279647
#
# Disc length: 4225 seconds
#
# Revision: 1
# Processed by: cddbd v1.5.2PL0 Copyright (c) Steve Scherf et al.
# Submitted via: ExactAudioCopy v1.1
#
DISCID=96107f0c
DTITLE=Gil Mellé - Complete Blue Note Fifties Sessions - Disc 2
DYEAR=1998
DGENRE=Jazz
TTITLE0=Summertime (mono)
TTITLE1=Quadrille For Moderns (mono)
TTITLE2=Five Impressions Of Color (mono)
TTITLE3=Life Begins At Midnight (mono)
TTITLE4=Night Train To Wildwood (mono)
TTITLE5=Threadneedle Street (mono)
TTITLE6=Weird Valley (mono)
TTITLE7=The Set Break (mono)
TTITLE8=Moonlight In Vermont (mono)
TTITLE9=Long Ago And Far Away (mono)
TTITLE10=The Arab Barber Blues (mono)
TTITLE11=Nice Questions (mono)
EXTD=
EXTT0=
EXTT1=
EXTT2=
EXTT3=
EXTT4=
EXTT5=
EXTT6=
EXTT7=
EXTT8=
EXTT9=
EXTT10=
EXTT11=
PLAYORDER=
